# author: headus 3D tools
#  using: ply2obj v1.12
#   from: uvlayout v2.11.00
# 25 vertices
v -0.09227600 0.00000000 0.23306400
v -0.03880700 0.00000000 0.11943500
v 0.00000000 0.00000000 -0.00000002
v 0.02353199 0.00000000 -0.12335704
v 0.03141701 0.00000000 -0.24869004
v -0.09400500 0.06279000 0.23211301
v -0.04064100 0.06279000 0.11870800
v -0.00191100 0.06279000 -0.00049100
v 0.02157400 0.06279000 -0.12360404
v 0.02944399 0.06279000 -0.24869004
v -0.09918600 0.12533298 0.22926501
v -0.04613800 0.12533298 0.11653200
v -0.00763700 0.12533298 -0.00196098
v 0.01570900 0.12533298 -0.12434500
v 0.02353199 0.12533298 -0.24869004
v -0.10779800 0.18738102 0.22453001
v -0.05527500 0.18738102 0.11291401
v -0.01715601 0.18738102 -0.00440500
v 0.00595900 0.18738102 -0.12557700
v 0.01370400 0.18738102 -0.24869004
v -0.11980699 0.24869002 0.21792901
v -0.06801700 0.24869002 0.10786900
v -0.03043001 0.24869002 -0.00781300
v -0.00763700 0.24869002 -0.12729400
v 0.00000000 0.24869002 -0.24869004
# 64 normals
vn 0.876213 0.000000 0.481749
vn 0.929683 0.000000 0.368125
vn 0.927913 0.062565 0.367271
vn 0.874565 0.062565 0.480803
vn 0.929683 0.000000 0.368125
vn 0.968595 0.000000 0.248520
vn 0.966703 0.062565 0.248031
vn 0.927913 0.062565 0.367271
vn 0.968595 0.000000 0.248520
vn 0.992126 0.000000 0.125221
vn 0.990173 0.062565 0.124977
vn 0.966703 0.062565 0.248031
vn 0.992126 0.000000 0.125221
vn 1.000000 0.000000 0.000000
vn 0.998016 0.062565 0.000000
vn 0.990173 0.062565 0.124977
vn 0.874565 0.062565 0.480803
vn 0.927913 0.062565 0.367271
vn 0.922481 0.124947 0.365196
vn 0.869316 0.124947 0.478026
vn 0.927913 0.062565 0.367271
vn 0.966703 0.062565 0.248031
vn 0.960935 0.124947 0.246567
vn 0.922481 0.124947 0.365196
vn 0.966703 0.062565 0.248031
vn 0.990173 0.062565 0.124977
vn 0.984344 0.124947 0.124245
vn 0.960935 0.124947 0.246567
vn 0.990173 0.062565 0.124977
vn 0.998016 0.062565 0.000000
vn 0.992157 0.124947 0.000000
vn 0.984344 0.124947 0.124245
vn 0.869316 0.124947 0.478026
vn 0.922481 0.124947 0.365196
vn 0.913294 0.186962 0.361686
vn 0.860862 0.186962 0.473173
vn 0.922481 0.124947 0.365196
vn 0.960935 0.124947 0.246567
vn 0.951413 0.186962 0.244308
vn 0.913294 0.186962 0.361686
vn 0.960935 0.124947 0.246567
vn 0.984344 0.124947 0.124245
vn 0.974608 0.186932 0.123024
vn 0.951413 0.186962 0.244308
vn 0.984344 0.124947 0.124245
vn 0.992157 0.124947 0.000000
vn 0.982360 0.186932 0.000000
vn 0.974608 0.186932 0.123024
vn 0.860862 0.186962 0.473173
vn 0.913294 0.186962 0.361686
vn 0.900690 0.248031 0.356437
vn 0.848807 0.248031 0.466734
vn 0.913294 0.186962 0.361686
vn 0.951413 0.186962 0.244308
vn 0.938290 0.248031 0.240890
vn 0.900690 0.248031 0.356437
vn 0.951413 0.186962 0.244308
vn 0.974608 0.186932 0.123024
vn 0.961027 0.248031 0.121315
vn 0.938290 0.248031 0.240890
vn 0.974608 0.186932 0.123024
vn 0.982360 0.186932 0.000000
vn 0.968748 0.248031 0.000000
vn 0.961027 0.248031 0.121315
# 25 uv coords
vt 0.251155 0.128580
vt 0.499390 0.128580
vt 0.747625 0.128580
vt 0.251155 0.254242
vt 0.499390 0.254242
vt 0.747625 0.254242
vt 0.251155 0.379902
vt 0.499390 0.379902
vt 0.747625 0.379902
vt 0.499390 0.002920
vt 0.747625 0.002920
vt 0.995860 0.128580
vt 0.995860 0.254242
vt 0.995860 0.002920
vt 0.251155 0.002920
vt 0.995860 0.379902
vt 0.747625 0.505564
vt 0.499390 0.505564
vt 0.002920 0.254242
vt 0.002920 0.128580
vt 0.002920 0.002920
vt 0.995860 0.505564
vt 0.251155 0.505564
vt 0.002920 0.379902
vt 0.002920 0.505564
# 16 polygons
s off
g pSphere1
f 1/21/1 2/15/2 7/1/3 6/20/4
f 2/15/5 3/10/6 8/2/7 7/1/8
f 3/10/9 4/11/10 9/3/11 8/2/12
f 4/11/13 5/14/14 10/12/15 9/3/16
f 6/20/17 7/1/18 12/4/19 11/19/20
f 7/1/21 8/2/22 13/5/23 12/4/24
f 8/2/25 9/3/26 14/6/27 13/5/28
f 9/3/29 10/12/30 15/13/31 14/6/32
f 11/19/33 12/4/34 17/7/35 16/24/36
f 12/4/37 13/5/38 18/8/39 17/7/40
f 13/5/41 14/6/42 19/9/43 18/8/44
f 14/6/45 15/13/46 20/16/47 19/9/48
f 16/24/49 17/7/50 22/23/51 21/25/52
f 17/7/53 18/8/54 23/18/55 22/23/56
f 18/8/57 19/9/58 24/17/59 23/18/60
f 19/9/61 20/16/62 25/22/63 24/17/64
# h3dt: 25 25 64 16
